<?xml version="1.0" encoding="utf-8"?>
<!-- Generator: Adobe Illustrator 23.0.0, SVG Export Plug-In . SVG Version: 6.00 Build 0)  -->
<svg version="1.1" id="Camada_1" xmlns="http://www.w3.org/2000/svg" xmlns:xlink="http://www.w3.org/1999/xlink" x="0px" y="0px"
	 viewBox="0 0 436 548" style="enable-background:new 0 0 436 548;" xml:space="preserve">
<style type="text/css">
	.st0{fill:#323232;}
</style>
<g>
	<g>
		<g>
			<path class="st0" d="M420.3,522.8V379.5c0-5.6-8-10-13.5-10s-10.5,6.7-10.5,12.2l1,118.5L222.9,385.7c-2.9-1.5-6.3-1.5-9.2,0
				L41.8,503.4l-1-289.6c0-5.5-4-9.5-9.5-9.5s-15,4.5-15,10v305.5c0,3.5-0.2,7.7,2.8,9.5s21.7,1.9,24.8,0.3l174.4-115.4l177.4,114.5
				c1.5,0.8,20,1.1,21.6,1.1"/>
		</g>
	</g>
	<g>
		<g>
			<path class="st0" d="M410.3,17.8h-384c-5.5,0-10,4.5-10,10v208.9c0,5.5,8,10,13.5,10s11-3.4,11-8.9L39.5,43.3l356.5-1l0.3,385.7
				c0,5.5,7,9.9,12.5,9.9s11.5-3.5,11.5-9V27.8C420.3,22.3,415.8,17.8,410.3,17.8z"/>
		</g>
	</g>
</g>
</svg>
