<svg xmlns="http://www.w3.org/2000/svg" viewBox="0 0 404 512.93"><defs><style>.cls-1{fill:#fff;}</style></defs><title>guardados_ativo</title><g id="Layer_2" data-name="Layer 2"><g id="Capa_1" data-name="Capa 1"><path class="cls-1" d="M15,186.5c-5.5,0-15,4.5-15,10V502c0,3.5,6.8,7.7,9.8,9.5s22.7,1.9,25.8.3L202,396.4,365.4,510.9c1.5.8,27,1.1,28.6,1.1a9.8,9.8,0,0,0,5.2-1.5A10,10,0,0,0,404,502V231.2c0-5.6-14-10-19.5-10"/><path class="cls-1" d="M404,286.3V10A10,10,0,0,0,394,0H10A10,10,0,0,0,0,10V218.9"/></g></g></svg>