<svg xmlns="http://www.w3.org/2000/svg" viewBox="0 0 404 512.93"><defs><style>.cls-1{fill:#fff;}</style></defs><title>guardados_1</title><g id="Layer_2" data-name="Layer 2"><g id="Capa_1" data-name="Capa 1"><path class="cls-1" d="M404,505V361.7c0-5.6-8-10-13.5-10S380,358.4,380,363.9l1,118.5L206.6,367.9a10,10,0,0,0-9.2,0L25.5,485.6,24.5,196a9.19,9.19,0,0,0-9.5-9.5c-5.5,0-15,4.5-15,10V502c0,3.5-.2,7.7,2.8,9.5s21.7,1.9,24.8.3L202,396.4,379.4,510.9c1.5.8,20,1.1,21.6,1.1"/><path class="cls-1" d="M394,0H10A10,10,0,0,0,0,10V218.9c0,5.5,8,10,13.5,10s11-3.4,11-8.9L23.2,25.5l356.5-1,.3,385.7c0,5.5,7,9.9,12.5,9.9s11.5-3.5,11.5-9V10A10,10,0,0,0,394,0Z"/></g></g></svg>