<?xml version="1.0" encoding="utf-8"?>
<!-- Generator: Adobe Illustrator 23.0.0, SVG Export Plug-In . SVG Version: 6.00 Build 0)  -->
<svg version="1.1" id="Layer_1" xmlns="http://www.w3.org/2000/svg" xmlns:xlink="http://www.w3.org/1999/xlink" x="0px" y="0px"
	 viewBox="0 0 492.3 492.3" style="enable-background:new 0 0 492.3 492.3;" xml:space="preserve">
<style type="text/css">
	.st0{fill:#323232;}
	.st1{fill:#D71424;}
	.st2{fill:#646464;}
	.st3{fill:#8E0717;}
</style>
<g>
	<g>
		<path class="st0" d="M-193.8,0h-323.5v492.3h427.8V104.2L-193.8,0z M-188,33.6l64.8,64.8H-188V33.6z M-109.3,472.6h-388.4V19.7
			h289.9v98.5h98.5L-109.3,472.6L-109.3,472.6z"/>
	</g>
</g>
<g>
	<g>
		<rect x="-458.3" y="384.1" class="st0" width="309.6" height="19.7"/>
	</g>
</g>
<g>
	<g>
		<rect x="-458.3" y="319.2" class="st0" width="309.6" height="19.7"/>
	</g>
</g>
<g>
	<g>
		<rect x="-458.3" y="254.3" class="st0" width="309.6" height="19.7"/>
	</g>
</g>
<g>
	<g>
		<rect x="-458.3" y="189.4" class="st0" width="188.6" height="19.7"/>
	</g>
</g>
<g>
	<g>
		<g>
			<path class="st1" d="M-193.8,540.8h-323.5v492.3h427.8V645.1L-193.8,540.8z M-188,574.4l64.8,64.8H-188V574.4z M-109.3,1013.4
				h-388.4V560.5h289.9V659h98.5L-109.3,1013.4L-109.3,1013.4z"/>
		</g>
	</g>
	<g>
		<g>
			<rect x="-458.3" y="924.9" class="st1" width="309.6" height="19.7"/>
		</g>
	</g>
	<g>
		<g>
			<rect x="-458.3" y="860" class="st1" width="309.6" height="19.7"/>
		</g>
	</g>
	<g>
		<g>
			<rect x="-458.3" y="795.1" class="st1" width="309.6" height="19.7"/>
		</g>
	</g>
	<g>
		<g>
			<rect x="-458.3" y="730.2" class="st1" width="188.6" height="19.7"/>
		</g>
	</g>
</g>
<g>
	<g>
		<g>
			<g>
				<path class="st0" d="M355.8,0H32.3v492.3H460V104.2L355.8,0z M361.6,33.6l64.8,64.8h-64.8V33.6z M440.4,472.6H52V19.7h289.9
					v98.5h98.5L440.4,472.6L440.4,472.6z"/>
			</g>
		</g>
		<g>
			<g>
				<rect x="91.3" y="384.1" class="st0" width="256.3" height="19.7"/>
			</g>
		</g>
		<g>
			<g>
				<rect x="91.3" y="319.2" class="st0" width="256.3" height="19.7"/>
			</g>
		</g>
		<g>
			<g>
				<rect x="91.3" y="254.3" class="st0" width="256.3" height="19.7"/>
			</g>
		</g>
		<g>
			<g>
				<rect x="91.3" y="189.4" class="st0" width="188.6" height="19.7"/>
			</g>
		</g>
	</g>
	<g>
		<g>
			<path class="st2" d="M460,492.3c0-40.7-15.9-79-44.6-107.8c-16.6-16.6-36.4-28.9-57.9-36.3c23.1-15.9,38.3-42.5,38.3-72.6
				c0-48.6-39.5-88.1-88.1-88.1s-88.1,39.5-88.1,88.1c0,30.1,15.2,56.7,38.3,72.6c-21.6,7.4-41.3,19.7-57.9,36.3
				c-28.8,28.8-44.6,67-44.6,107.8"/>
		</g>
	</g>
</g>
<g>
	<g>
		<g>
			<g>
				<path class="st1" d="M355.8,540.8H32.3v492.3H460V645.1L355.8,540.8z M361.6,574.4l64.8,64.8h-64.8V574.4z M440.4,1013.4H52
					V560.5h289.9V659h98.5L440.4,1013.4L440.4,1013.4z"/>
			</g>
		</g>
		<g>
			<g>
				<rect x="91.3" y="924.9" class="st1" width="256.3" height="19.7"/>
			</g>
		</g>
		<g>
			<g>
				<rect x="91.3" y="860" class="st1" width="256.3" height="19.7"/>
			</g>
		</g>
		<g>
			<g>
				<rect x="91.3" y="795.1" class="st1" width="256.3" height="19.7"/>
			</g>
		</g>
		<g>
			<g>
				<rect x="91.3" y="730.2" class="st1" width="188.6" height="19.7"/>
			</g>
		</g>
	</g>
	<g>
		<g>
			<path class="st3" d="M460,1033.1c0-40.7-15.9-79-44.6-107.8c-16.6-16.6-36.4-28.9-57.9-36.3c23.1-15.9,38.3-42.5,38.3-72.6
				c0-48.6-39.5-88.1-88.1-88.1s-88.1,39.5-88.1,88.1c0,30.1,15.2,56.7,38.3,72.6c-21.6,7.4-41.3,19.7-57.9,36.3
				c-28.8,28.8-44.6,67-44.6,107.8"/>
		</g>
	</g>
</g>
</svg>
