<svg xmlns="http://www.w3.org/2000/svg" viewBox="0 0 432.7 497.3"><defs><style>.cls-1,.cls-3{fill:#fff;}.cls-2{fill:#d71424;}.cls-3{stroke:#d71424;stroke-miterlimit:10;stroke-width:10px;}</style></defs><title>jornal_personalizado_ativo_1</title><g id="Layer_2" data-name="Layer 2"><g id="Layer_1-2" data-name="Layer 1"><polygon class="cls-1" points="10.9 11.3 319.9 11.3 319.9 104.3 416.9 104.3 416.9 484.6 10.9 484.6 10.9 11.3"/><rect class="cls-2" x="59" y="384" width="256.3" height="19.7"/><rect class="cls-2" x="59" y="319.2" width="256.3" height="19.7"/><rect class="cls-2" x="59" y="254.3" width="256.3" height="19.7"/><rect class="cls-2" x="59" y="189.3" width="188.6" height="19.7"/><path class="cls-1" d="M323.5,0H0V492.3H427.7V104.1Zm5.8,33.5,64.8,64.8H329.3V33.5Zm78.8,439H19.7V19.6H309.6v98.5h98.5V472.5Z"/><path class="cls-3" d="M427.7,492.3A152.49,152.49,0,0,0,325.2,348.2a88.1,88.1,0,1,0-99.6,0A152.49,152.49,0,0,0,123.1,492.3Z"/></g></g></svg>