<?xml version="1.0" encoding="utf-8"?>
<!-- Generator: Adobe Illustrator 23.0.0, SVG Export Plug-In . SVG Version: 6.00 Build 0)  -->
<svg version="1.1" id="Capa_1" xmlns="http://www.w3.org/2000/svg" xmlns:xlink="http://www.w3.org/1999/xlink" x="0px" y="0px"
	 viewBox="0 0 350 350" style="enable-background:new 0 0 350 350;" xml:space="preserve">
<style type="text/css">
	.st0{fill:#FFFFFF;}
	.st1{fill:#C8C8C8;}
	.st2{fill:none;stroke:#FFFFFF;stroke-linecap:round;stroke-linejoin:round;stroke-miterlimit:10;}
</style>
<g>
	<circle class="st0" cx="179.2" cy="176.6" r="166.8"/>
	<g>
		<g>
			<path class="st1" d="M179.2,173.9c27.1,0,49-26.7,49-59.6c0-32.9-7.2-59.6-49-59.6s-49,26.7-49,59.6
				C130.1,147.2,152.1,173.9,179.2,173.9z"/>
			<path class="st1" d="M86.6,264.8C86.5,262.8,86.5,264.3,86.6,264.8L86.6,264.8z"/>
			<path class="st1" d="M271.8,266.4C271.8,265.9,271.8,262.6,271.8,266.4L271.8,266.4z"/>
			<path class="st1" d="M271.7,262.4c-0.9-57.3-8.4-73.6-65.7-84c0,0-8.1,10.3-26.8,10.3s-26.9-10.3-26.9-10.3
				c-56.6,10.2-64.6,26.3-65.6,82.1c-0.1,4.6-0.1,4.8-0.1,4.3c0,1,0,2.8,0,6c0,0,13.6,27.5,92.6,27.5c79,0,92.6-27.5,92.6-27.5
				c0-2.1,0-3.5,0-4.5C271.8,266.7,271.7,266.1,271.7,262.4z"/>
		</g>
		<g>
			<line class="st2" x1="179.2" y1="232.4" x2="179.2" y2="263.8"/>
			<line class="st2" x1="194.9" y1="248.1" x2="163.5" y2="248.1"/>
		</g>
	</g>
</g>
</svg>
