<?xml version="1.0" encoding="utf-8"?>
<!-- Generator: Adobe Illustrator 23.0.0, SVG Export Plug-In . SVG Version: 6.00 Build 0)  -->
<svg version="1.1" id="Camada_1" xmlns="http://www.w3.org/2000/svg" xmlns:xlink="http://www.w3.org/1999/xlink" x="0px" y="0px"
	 viewBox="0 0 512 512" style="enable-background:new 0 0 512 512;" xml:space="preserve">
<style type="text/css">
	.st0{fill:#D71424;}
	.st1{fill:#323232;}
</style>
<g>
	<path class="st0" d="M432,240h-32c0,79.5-64.5,144-144,144c-79.5,0-144-64.5-144-144H80c0.1,90.9,69.4,166.8,160,175.2V512h32
		v-96.8C362.6,406.8,431.9,330.9,432,240z"/>
	<path class="st0" d="M256,352c61.8-0.1,111.9-50.2,112-112V112C368,50.1,317.9,0,256,0c-61.9,0-112,50.1-112,112v128
		C144.1,301.8,194.2,351.9,256,352z M176,112c0-44.2,35.8-80,80-80s80,35.8,80,80v128c0,44.2-35.8,80-80,80s-80-35.8-80-80V112z"/>
</g>
<g>
	<path class="st1" d="M-124,240h-32c0,79.5-64.5,144-144,144c-79.5,0-144-64.5-144-144h-32c0.1,90.9,69.4,166.8,160,175.2V512h32
		v-96.8C-193.4,406.8-124.1,330.9-124,240z"/>
	<path class="st1" d="M-300,352c61.8-0.1,111.9-50.2,112-112V112c0-61.9-50.1-112-112-112c-61.9,0-112,50.1-112,112v128
		C-411.9,301.8-361.8,351.9-300,352z M-380,112c0-44.2,35.8-80,80-80s80,35.8,80,80v128c0,44.2-35.8,80-80,80s-80-35.8-80-80V112z"
		/>
</g>
</svg>
