<?xml version="1.0" encoding="utf-8"?>
<!-- Generator: Adobe Illustrator 23.0.0, SVG Export Plug-In . SVG Version: 6.00 Build 0)  -->
<svg version="1.1" id="Camada_1" xmlns="http://www.w3.org/2000/svg" xmlns:xlink="http://www.w3.org/1999/xlink" x="0px" y="0px"
	 viewBox="0 0 488 488" style="enable-background:new 0 0 488 488;" xml:space="preserve">
<style type="text/css">
	.st0{fill:#D71424;}
</style>
<path class="st0" d="M357.3,183.3v-68.8c0.1-40.9-21.6-78.7-57-99.2s-79-20.5-114.4,0s-57.1,58.3-57,99.2v71.2
	c-2.3,2.1-4.6,4.2-6.8,6.4c-67.7,67.6-67.8,177.3-0.2,245s177.2,67.8,245,0.2c67.7-67.6,67.8-177.2,0.3-245
	C363.9,189.3,360.7,186.2,357.3,183.3z M254.4,357.5v28.1c0,5.5-4.5,10-10,10c-5.5,0-10-4.5-10-10v-28.1c-16.3-5-26.5-21.1-24-37.9
	c2.5-16.8,17-29.3,34-29.3s31.5,12.5,34,29.3C280.9,336.4,270.7,352.5,254.4,357.5z M337.3,168.5c-57.7-36.5-131.5-35.8-188.5,1.8
	v-55.7c0-52.1,42.2-94.3,94.3-94.3c52.1,0,94.3,42.2,94.3,94.3L337.3,168.5L337.3,168.5z"/>
<path class="st0" d="M244.4,310.3c-7.9,0-14.3,6.4-14.3,14.3c0,7.9,6.4,14.3,14.3,14.3c7.9,0,14.3-6.4,14.3-14.3
	C258.8,316.7,252.4,310.3,244.4,310.3z"/>
</svg>
