<svg xmlns="http://www.w3.org/2000/svg" viewBox="0 0 511.98 512.05"><defs><style>.cls-1{fill:#d71424;}</style></defs><title>search</title><g id="Layer_2" data-name="Layer 2"><g id="Capa_1" data-name="Capa 1"><path class="cls-1" d="M508.9,478.7,360.1,330a201.62,201.62,0,0,0,45.2-127.3C405.3,90.9,314.4,0,202.7,0S0,90.9,0,202.7,90.9,405.4,202.7,405.4A201.62,201.62,0,0,0,330,360.2L478.7,508.9a10.62,10.62,0,0,0,15.1,0l15.1-15.1A10.81,10.81,0,0,0,508.9,478.7Zm-306.2-116c-88.2,0-160-71.8-160-160s71.8-160,160-160,160,71.8,160,160S290.9,362.7,202.7,362.7Z"/></g></g></svg>