<?xml version="1.0" encoding="utf-8"?>
<!-- Generator: Adobe Illustrator 23.0.0, SVG Export Plug-In . SVG Version: 6.00 Build 0)  -->
<svg version="1.1" id="Layer_1" xmlns="http://www.w3.org/2000/svg" xmlns:xlink="http://www.w3.org/1999/xlink" x="0px" y="0px"
	 viewBox="0 0 121.3 127.8" style="enable-background:new 0 0 121.3 127.8;" xml:space="preserve">
<style type="text/css">
	.st0{fill:#D71424;}
	.st1{fill:none;stroke:#D71424;stroke-miterlimit:10;}
</style>
<g>
	<g>
		<g>
			<path class="st0" d="M-139.4-143.7c-14.5,0-26.4,11.7-26.4,26.2s11.8,26.2,26.4,26.2S-113-103-113-117.5
				S-124.9-143.7-139.4-143.7z"/>
		</g>
	</g>
	<g>
		<g>
			<path class="st0" d="M-106.5-74.3c-7.2-7.3-16.8-11.3-26.9-11.3h-11.7c-10.2,0-19.7,4-26.9,11.3c-7.2,7.2-11.1,16.8-11.1,26.9
				c0,1.6,1.3,2.9,2.9,2.9h82c1.6,0,2.9-1.3,2.9-2.9C-95.4-57.5-99.4-67.1-106.5-74.3z"/>
		</g>
	</g>
</g>
<g>
	<g>
		<g>
			<path class="st1" d="M274.9-131.1c-14.5,0-26.4,11.7-26.4,26.2s11.8,26.2,26.4,26.2c14.6,0,26.3-11.8,26.3-26.3
				S289.4-131.1,274.9-131.1z"/>
		</g>
	</g>
	<g>
		<g>
			<path class="st1" d="M307.7-61.7C300.5-69,290.9-73,280.8-73H269c-10.2,0-19.7,4-26.9,11.3c-7.2,7.2-11.1,16.8-11.1,26.9
				c0,1.6,1.3,2.9,2.9,2.9h82c1.6,0,2.9-1.3,2.9-2.9C318.8-44.9,314.8-54.5,307.7-61.7z"/>
		</g>
	</g>
</g>
<g>
	<g>
		<g>
			<path class="st1" d="M78.3-242.9c-14.5,0-26.4,11.7-26.4,26c0,14.3,11.8,26,26.4,26s26.4-11.7,26.4-26S92.8-242.9,78.3-242.9z"/>
		</g>
	</g>
	<g>
		<g>
			<path class="st1" d="M111-173.9c-7.2-7.2-16.8-11.2-26.9-11.2H72.5c-10.2,0-19.7,4-26.9,11.2s-11.1,16.7-11.1,26.7
				c0,1.6,1.3,2.9,2.9,2.9h82c1.6,0,2.9-1.3,2.9-2.9C122.2-157.3,118.3-166.7,111-173.9z"/>
		</g>
	</g>
	<g>
		<g>
			<path class="st0" d="M42.8-171c-4.9,6.3-8.5,14.4-8.5,24.8c0,1.4,1.3,2.5,2.9,2.5h82c1.6,0,2.9-1.1,2.9-2.5
				c0-8.6-2.1-16.9-8.5-24.8"/>
		</g>
	</g>
</g>
<g>
	<g>
		<g>
			<path class="st1" d="M60.5,14.3C46,14.3,34.1,26,34.1,40.5S46,66.7,60.5,66.7c14.5,0,26.4-11.7,26.4-26.2S75.1,14.3,60.5,14.3z"
				/>
		</g>
	</g>
	<g>
		<g>
			<path class="st0" d="M93.4,83.7c-7.2-7.3-16.8-11.3-26.9-11.3H54.8c-10.2,0-19.7,4-26.9,11.3c-7.2,7.2-11.1,16.8-11.1,26.9
				c0,1.6,1.3,2.9,2.9,2.9h82c1.6,0,2.9-1.3,2.9-2.9C104.4,100.5,100.4,90.9,93.4,83.7z"/>
		</g>
	</g>
</g>
</svg>
