<?xml version="1.0" encoding="utf-8"?>
<!-- Generator: Adobe Illustrator 23.0.0, SVG Export Plug-In . SVG Version: 6.00 Build 0)  -->
<svg version="1.1" id="Layer_1" xmlns="http://www.w3.org/2000/svg" xmlns:xlink="http://www.w3.org/1999/xlink" x="0px" y="0px"
	 viewBox="0 0 121.3 127.8" style="enable-background:new 0 0 121.3 127.8;" xml:space="preserve">
<style type="text/css">
	.st0{fill:#D71424;}
	.st1{fill:none;stroke:#D71424;stroke-miterlimit:10;}
</style>
<g>
	<g>
		<g>
			<path class="st0" d="M-139.4-143.7c-14.5,0-26.4,11.7-26.4,26.2s11.8,26.2,26.4,26.2S-113-103-113-117.5
				S-124.9-143.7-139.4-143.7z"/>
		</g>
	</g>
	<g>
		<g>
			<path class="st0" d="M-106.5-74.3c-7.2-7.3-16.8-11.3-26.9-11.3h-11.7c-10.2,0-19.7,4-26.9,11.3c-7.2,7.2-11.1,16.8-11.1,26.9
				c0,1.6,1.3,2.9,2.9,2.9h82c1.6,0,2.9-1.3,2.9-2.9C-95.4-57.5-99.4-67.1-106.5-74.3z"/>
		</g>
	</g>
</g>
<g>
	<g>
		<g>
			<path class="st1" d="M60.6,14.3c-14.5,0-26.4,11.7-26.4,26.2s11.8,26.2,26.4,26.2c14.6,0,26.3-11.8,26.3-26.3
				S75.1,14.3,60.6,14.3z"/>
		</g>
	</g>
	<g>
		<g>
			<path class="st1" d="M93.4,83.7c-7.2-7.3-16.8-11.3-26.9-11.3H54.8c-10.2,0-19.7,4-26.9,11.3c-7.2,7.2-11.1,16.8-11.1,26.9
				c0,1.6,1.3,2.9,2.9,2.9h82c1.6,0,2.9-1.3,2.9-2.9C104.6,100.5,100.6,90.9,93.4,83.7z"/>
		</g>
	</g>
</g>
<g>
	<g>
		<g>
			<path class="st1" d="M29.7-159.7c-14.5,0-26.4,11.7-26.4,26s11.8,26,26.4,26s26.4-11.7,26.4-26S44.2-159.7,29.7-159.7z"/>
		</g>
	</g>
	<g>
		<g>
			<path class="st1" d="M62.4-90.7c-7.2-7.2-16.8-11.2-26.9-11.2H23.9c-10.2,0-19.7,4-26.9,11.2S-14.1-74-14.1-64
				c0,1.6,1.3,2.9,2.9,2.9h82c1.6,0,2.9-1.3,2.9-2.9C73.6-74.1,69.7-83.5,62.4-90.7z"/>
		</g>
	</g>
	<g>
		<g>
			<path class="st0" d="M-5.8-87.8c-4.9,6.3-8.5,14.4-8.5,24.8c0,1.4,1.3,2.5,2.9,2.5h82c1.6,0,2.9-1.1,2.9-2.5
				c0-8.6-2.1-16.9-8.5-24.8"/>
		</g>
	</g>
</g>
<g>
	<g>
		<g>
			<path class="st1" d="M-95.4,14.3c-14.5,0-26.4,11.7-26.4,26.2s11.8,26.2,26.4,26.2C-80.9,66.7-69,55-69,40.5
				S-80.9,14.3-95.4,14.3z"/>
		</g>
	</g>
	<g>
		<g>
			<path class="st0" d="M-62.6,83.7c-7.2-7.3-16.8-11.3-26.9-11.3h-11.7c-10.2,0-19.7,4-26.9,11.3c-7.2,7.2-11.1,16.8-11.1,26.9
				c0,1.6,1.3,2.9,2.9,2.9h82c1.6,0,2.9-1.3,2.9-2.9C-51.5,100.5-55.5,90.9-62.6,83.7z"/>
		</g>
	</g>
</g>
</svg>
