<svg xmlns="http://www.w3.org/2000/svg" viewBox="0 0 93.8 105.2"><defs><style>.cls-1{fill:none;stroke:#d71424;stroke-miterlimit:10;stroke-width:6px;}</style></defs><title>user_4</title><g id="Layer_2" data-name="Layer 2"><g id="Layer_1-2" data-name="Layer 1"><path class="cls-1" d="M46.9,3A26.2,26.2,0,1,0,73.2,29.1,26.33,26.33,0,0,0,46.9,3Z"/><path class="cls-1" d="M79.7,72.4A37.6,37.6,0,0,0,52.8,61.1H41A37.44,37.44,0,0,0,14.1,72.4,37.82,37.82,0,0,0,3,99.3a2.9,2.9,0,0,0,2.9,2.9h82a2.9,2.9,0,0,0,2.9-2.9A38.24,38.24,0,0,0,79.7,72.4Z"/></g></g></svg>